<svg xmlns="http://www.w3.org/2000/svg" width="464" height="404" viewBox="0 0 464 404">
<g>
<path d="M 229.85 387.88 C221.80,388.50 213.47,388.93 211.35,388.85 C197.66,388.33 181.12,386.78 179.00,385.81 C177.62,385.18 174.25,384.32 171.50,383.88 C161.45,382.29 159.42,381.80 155.50,380.03 C153.30,379.04 149.93,377.68 148.00,377.02 C146.07,376.35 142.01,374.92 138.98,373.84 L 133.45 371.87 L 133.66 366.50 C133.77,363.55 134.33,360.26 134.89,359.20 C135.46,358.13 135.72,357.05 135.46,356.79 C135.20,356.53 135.78,355.61 136.74,354.74 C138.36,353.29 139.20,353.44 147.00,356.54 C151.68,358.40 156.71,359.94 158.19,359.96 C159.67,359.98 161.14,360.41 161.45,360.92 C162.46,362.56 182.33,366.63 196.50,368.10 C208.35,369.33 231.96,368.43 240.49,366.42 C243.80,365.64 248.75,364.51 251.50,363.90 C271.79,359.44 298.34,347.52 312.43,336.54 C313.50,335.71 314.62,335.30 314.93,335.63 C315.24,335.96 314.63,336.74 313.57,337.37 C312.50,337.99 310.13,339.96 308.28,341.75 C306.44,343.54 304.55,345.00 304.08,345.00 C302.99,345.00 293.00,354.35 293.00,355.37 C293.00,355.79 293.90,355.85 295.00,355.50 C297.83,354.60 297.49,356.45 294.59,357.78 C291.82,359.04 290.29,362.69 291.87,364.27 C292.64,365.04 293.69,365.01 295.52,364.17 C296.94,363.53 299.47,363.00 301.15,363.00 C303.23,363.00 304.85,362.19 306.18,360.50 C307.53,358.78 309.13,358.00 311.29,358.00 C314.42,358.00 314.43,358.02 312.47,359.91 C311.39,360.95 306.90,363.71 302.50,366.03 C298.10,368.36 293.60,370.79 292.50,371.44 C290.31,372.73 284.00,375.01 277.00,377.05 C274.52,377.77 271.17,379.01 269.55,379.81 C266.35,381.38 254.90,384.00 251.22,384.00 C249.96,384.00 247.93,384.62 246.71,385.38 C245.37,386.23 238.76,387.21 229.85,387.88 ZM 311.71 73.50 C319.39,80.54 313.19,77.32 302.50,68.72 C300.85,67.40 294.33,63.71 288.00,60.54 C268.97,51.00 264.41,49.40 246.50,45.95 C232.44,43.25 203.59,43.25 189.50,45.95 C171.58,49.38 162.09,51.68 160.54,52.96 C158.70,54.49 156.00,53.64 156.00,51.53 C156.00,50.69 155.58,50.00 155.07,50.00 C153.14,50.00 152.70,45.69 154.49,44.38 C155.45,43.68 156.83,41.96 157.56,40.56 C158.81,38.15 158.74,38.00 156.40,38.00 C154.01,38.00 153.98,37.94 155.71,36.13 C156.69,35.10 158.85,34.02 160.50,33.74 C162.15,33.46 165.98,32.25 169.00,31.05 C172.02,29.85 176.75,28.49 179.50,28.02 C182.25,27.55 189.41,26.23 195.42,25.09 C207.54,22.77 227.43,22.27 236.94,24.03 C258.40,28.02 263.11,29.08 268.00,31.02 C271.02,32.22 274.62,33.42 276.00,33.69 C278.74,34.23 285.21,37.12 297.50,43.29 C307.08,48.09 312.05,51.15 313.89,53.36 C314.63,54.26 315.78,55.00 316.43,55.00 C317.08,55.00 319.11,56.55 320.95,58.44 C324.06,61.66 324.12,61.85 321.89,61.34 C320.58,61.04 318.38,59.56 317.00,58.04 C315.20,56.07 313.16,55.11 309.74,54.66 C305.05,54.04 304.98,54.07 305.59,56.52 C306.11,58.56 305.85,59.00 304.17,59.00 C299.62,59.00 300.24,65.03 304.99,66.99 C306.64,67.68 308.00,68.66 308.00,69.17 C308.00,69.68 309.67,71.63 311.71,73.50 ZM 270.85 163.39 C266.80,165.84 256.28,165.52 252.68,162.83 C248.98,160.07 245.00,153.70 245.00,150.52 L 245.00 148.00 L 257.25 148.07 C263.99,148.11 271.52,148.46 274.00,148.84 C278.42,149.51 278.49,149.59 278.16,152.97 C277.78,156.79 274.87,160.95 270.85,163.39 ZM 242.41 128.57 C242.83,130.01 242.26,131.35 240.50,133.00 L 237.98 135.37 L 219.05 116.43 L 221.30 110.97 C224.01,104.40 228.84,96.99 230.38,97.02 C232.36,97.06 243.14,108.20 242.59,109.64 C242.21,110.63 239.93,111.00 234.30,111.00 L 226.55 111.00 L 234.17 118.75 C238.36,123.01 242.07,127.43 242.41,128.57 ZM 302.31 126.20 C298.91,129.75 292.65,130.08 288.63,126.93 C286.33,125.12 286.00,124.13 286.00,119.08 C286.00,111.97 287.85,109.91 294.84,109.24 C299.21,108.82 299.98,109.07 302.35,111.63 C306.10,115.66 306.08,122.27 302.31,126.20 ZM 292.50 205.96 L 297.50 207.91 L 292.67 207.95 C288.64,207.99 287.37,207.52 284.92,205.08 C281.64,201.79 281.21,198.43 283.51,193.98 C285.37,190.38 287.87,188.97 292.18,189.09 L 295.50 189.18 L 292.00 190.14 C287.71,191.32 285.00,194.33 285.00,197.92 C285.00,201.80 286.82,203.75 292.50,205.96 Z" fill="rgb(21,143,140)"/>
<path d="M 196.50 368.11 C189.94,367.44 182.05,366.18 175.41,364.85 C168.83,363.55 163.50,362.19 161.90,361.28 C161.74,361.20 161.60,361.11 161.50,361.03 C161.26,360.85 160.53,360.51 159.49,360.08 C159.08,360.01 158.64,359.97 158.19,359.96 C156.71,359.94 151.68,358.40 147.00,356.54 C139.20,353.44 138.36,353.29 136.74,354.74 C135.78,355.61 135.20,356.53 135.46,356.79 C135.72,357.05 135.46,358.13 134.89,359.20 C134.33,360.26 133.77,363.55 133.66,366.50 L 133.45 371.87 L 138.98 373.84 C142.01,374.92 146.07,376.35 148.00,377.02 C149.27,377.45 151.17,378.19 152.95,378.93 C153.90,379.30 154.79,379.67 155.50,380.00 C158.64,381.44 160.55,382.04 166.37,383.04 C160.57,382.05 158.64,381.45 155.50,380.03 C154.75,379.69 153.87,379.31 152.95,378.93 C150.96,378.16 148.67,377.39 147.00,376.93 C137.98,374.48 135.29,373.37 123.50,367.22 C111.43,360.91 96.36,351.12 89.30,345.00 C70.04,328.28 54.93,310.58 45.34,293.50 C32.19,270.10 28.22,259.80 22.42,234.00 C20.52,225.55 18.00,201.82 18.00,192.41 C18.00,191.96 18.00,191.54 18.00,191.13 C17.98,188.39 17.97,186.71 18.78,185.67 C20.18,183.87 24.02,183.96 34.50,183.75 L 46.50 183.50 L 47.24 174.50 C47.65,169.55 48.44,164.20 48.99,162.60 C49.55,161.01 50.00,158.17 50.00,156.30 C50.00,154.43 50.61,151.69 51.35,150.20 C52.10,148.72 53.25,145.28 53.92,142.56 C55.14,137.56 56.19,134.99 62.97,120.50 C65.02,116.10 67.01,111.55 67.38,110.38 C67.75,109.22 68.94,107.46 70.03,106.48 C71.11,105.49 72.00,104.33 72.00,103.88 C72.00,101.16 84.53,85.66 96.50,73.60 C114.00,55.96 131.37,44.07 150.00,36.98 C151.93,36.24 154.39,35.05 155.47,34.32 C156.56,33.59 158.33,33.00 159.40,33.00 C161.23,33.00 163.00,32.54 172.00,29.72 C173.93,29.12 177.52,28.30 180.00,27.91 C181.28,27.70 183.77,27.26 186.70,26.72 C189.47,26.21 192.57,25.63 195.42,25.09 C200.28,24.16 206.39,23.52 212.58,23.20 C206.39,23.52 200.28,24.16 195.42,25.09 C192.53,25.65 189.42,26.23 186.70,26.72 C183.62,27.29 180.95,27.77 179.50,28.02 C176.75,28.49 172.02,29.85 169.00,31.05 C165.98,32.25 162.15,33.46 160.50,33.74 C158.85,34.02 156.69,35.10 155.71,36.13 C153.98,37.94 154.01,38.00 156.40,38.00 C158.74,38.00 158.81,38.15 157.56,40.56 C156.83,41.96 155.45,43.68 154.49,44.38 C152.70,45.69 153.14,50.00 155.07,50.00 C155.58,50.00 156.00,50.69 156.00,51.53 C156.00,53.64 158.70,54.49 160.54,52.96 C161.65,52.05 166.80,50.61 180.84,47.71 C181.35,47.59 181.85,47.46 182.36,47.35 C184.57,46.90 186.95,46.44 189.50,45.95 C189.80,45.89 190.10,45.84 190.41,45.78 C204.00,43.39 229.67,43.31 244.08,45.54 C236.40,44.49 227.97,44.03 218.00,44.03 C207.28,44.03 198.52,44.52 190.41,45.78 C186.84,46.49 183.66,47.13 180.84,47.71 C171.17,50.13 161.72,53.93 150.00,59.70 C138.20,65.52 132.39,69.20 122.00,77.46 C111.68,85.67 94.97,104.94 89.02,115.50 C79.56,132.28 77.44,137.23 70.94,157.67 C68.79,164.41 67.03,179.00 67.02,190.17 C67.01,196.59 66.73,202.55 66.39,203.42 C65.89,204.72 63.92,205.00 55.14,205.01 C40.61,205.03 40.00,205.25 40.02,210.37 C40.04,214.43 41.98,226.63 43.87,234.50 C48.71,254.78 54.01,267.42 66.00,287.40 C74.71,301.92 95.68,325.03 107.23,332.85 C124.28,344.40 131.62,348.84 137.50,351.19 C141.35,352.73 145.28,354.44 146.22,354.99 C147.17,355.54 150.77,356.95 154.22,358.13 C156.20,358.80 158.11,359.51 159.49,360.08 C160.45,360.25 161.23,360.57 161.45,360.92 C161.52,361.03 161.67,361.15 161.90,361.28 C163.69,362.22 168.97,363.57 175.41,364.85 C182.01,366.16 189.88,367.42 196.50,368.10 C201.05,368.58 207.33,368.73 213.83,368.64 C224.26,368.47 235.25,367.65 240.49,366.42 C235.23,367.66 224.25,368.48 213.83,368.64 C207.33,368.74 201.05,368.58 196.50,368.11 ZM 242.50 109.10 C241.42,106.44 232.19,97.05 230.38,97.02 C228.84,96.99 224.01,104.40 221.30,110.97 L 219.05 116.43 L 236.62 134.01 C233.17,131.77 205.00,104.28 205.00,103.10 C205.00,102.61 208.60,101.89 213.00,101.50 C217.40,101.11 220.98,100.50 220.96,100.15 C220.94,99.79 218.25,96.80 214.97,93.50 C211.70,90.20 209.01,86.97 209.01,86.32 C209.00,84.94 213.77,80.99 215.38,81.03 C216.00,81.05 222.53,87.07 229.90,94.41 C238.44,102.92 242.45,107.07 242.50,109.10 ZM 287.51 60.30 C287.68,60.38 287.84,60.46 288.00,60.54 C294.33,63.71 300.85,67.40 302.50,68.72 C307.05,72.38 310.79,75.07 312.99,76.40 C310.71,75.08 306.77,72.25 302.68,68.90 C301.06,67.58 294.36,63.85 287.51,60.30 ZM 314.94 76.81 C314.59,76.31 313.79,75.44 312.44,74.18 C313.68,75.16 314.68,76.21 314.94,76.81 ZM 262.45 49.56 C265.27,50.38 267.92,51.30 270.78,52.46 C267.98,51.37 265.22,50.41 262.45,49.56 ZM 308.60 70.23 C308.22,69.74 308.00,69.36 308.00,69.17 C308.00,69.16 308.00,69.14 308.00,69.12 C308.23,69.40 308.40,69.68 308.48,69.93 C308.51,70.02 308.55,70.12 308.60,70.23 ZM 240.93 110.59 C239.57,110.95 237.34,111.00 234.30,111.00 C237.51,111.00 239.63,110.88 240.93,110.59 ZM 301.22 62.95 C300.68,60.92 301.60,59.00 304.17,59.00 C301.61,59.00 300.68,60.92 301.22,62.95 Z" fill="rgb(50,219,105)"/>
<path d="M 292.50 205.96 C286.82,203.75 285.00,201.80 285.00,197.92 C285.00,194.33 287.71,191.32 292.00,190.14 L 295.50 189.18 L 293.23 189.12 C301.51,188.71 320.39,188.71 360.65,189.00 C425.63,189.46 430.93,189.63 432.72,191.25 C433.79,192.21 435.08,193.00 435.60,193.00 C437.81,193.00 443.70,199.12 445.82,203.63 C447.09,206.31 448.55,209.28 449.06,210.24 C450.50,212.90 450.18,220.32 448.44,224.63 C444.22,235.08 443.17,236.41 435.00,241.63 C430.66,244.40 429.95,244.52 415.04,245.00 L 399.59 245.50 L 397.72 250.50 C396.68,253.25 395.48,256.93 395.04,258.69 C393.40,265.21 379.53,293.11 374.17,300.68 C361.71,318.27 357.54,323.22 345.68,334.54 C333.05,346.60 319.85,356.42 305.66,364.30 C308.87,362.48 311.65,360.70 312.47,359.91 C314.43,358.02 314.42,358.00 311.29,358.00 C309.13,358.00 307.53,358.78 306.18,360.50 C304.85,362.19 303.23,363.00 301.15,363.00 C299.47,363.00 296.94,363.53 295.52,364.17 C293.69,365.01 292.64,365.04 291.87,364.27 C290.29,362.69 291.82,359.04 294.59,357.78 C297.49,356.45 297.83,354.60 295.00,355.50 C293.90,355.85 293.00,355.79 293.00,355.37 C293.00,354.35 302.99,345.00 304.08,345.00 C304.55,345.00 306.44,343.54 308.28,341.75 C310.13,339.96 312.50,337.99 313.57,337.37 C314.63,336.74 315.24,335.96 314.93,335.63 C314.62,335.30 313.50,335.71 312.43,336.54 C308.71,339.44 304.12,342.40 299.01,345.28 C315.42,335.44 332.79,320.41 346.98,303.46 C360.66,287.11 376.23,254.91 381.04,233.00 C381.71,229.98 382.41,226.94 382.59,226.25 C382.85,225.30 387.86,225.00 403.29,225.00 C423.28,225.00 423.69,224.96 425.83,222.69 C428.81,219.51 428.74,214.04 425.69,211.17 L 423.37 209.00 L 355.82 209.00 C289.31,209.00 288.23,208.97 285.67,206.96 C283.96,205.61 282.92,203.65 282.51,201.52 C282.96,202.75 283.76,203.92 284.92,205.08 C287.37,207.52 288.64,207.99 292.67,207.95 L 297.50 207.91 ZM 311.71 73.50 C310.42,72.32 309.27,71.09 308.60,70.23 C308.55,70.12 308.51,70.02 308.48,69.93 C308.40,69.68 308.23,69.40 308.00,69.12 C307.91,68.60 306.59,67.66 304.99,66.99 C302.92,66.14 301.63,64.51 301.22,62.95 C300.68,60.93 301.61,59.00 304.16,59.00 L 304.17 59.00 C305.85,59.00 306.11,58.56 305.59,56.52 C304.98,54.07 305.05,54.04 309.74,54.66 C313.16,55.11 315.20,56.07 317.00,58.04 C318.38,59.56 320.58,61.04 321.89,61.34 C324.12,61.85 324.06,61.66 320.95,58.44 C320.52,58.00 320.08,57.58 319.66,57.20 C326.70,62.76 334.82,69.78 339.50,74.52 C347.79,82.91 358.57,96.34 361.80,102.27 C363.06,104.60 364.84,107.62 365.75,109.00 C368.69,113.44 375.95,128.45 375.98,130.13 C375.99,131.02 376.62,132.27 377.37,132.89 C378.13,133.52 379.02,135.49 379.36,137.27 C379.70,139.04 380.72,142.98 381.64,146.00 C383.92,153.52 384.49,161.71 382.95,164.60 C381.19,167.88 375.95,169.47 371.62,168.04 C367.05,166.53 365.33,164.39 363.95,158.49 C362.43,152.01 359.25,141.47 358.14,139.24 C357.66,138.29 355.64,134.12 353.64,130.00 C344.36,110.84 339.00,103.11 326.00,90.15 C321.33,85.48 317.61,81.29 317.75,80.83 C317.89,80.38 317.48,80.00 316.85,80.00 C316.22,80.00 313.54,78.09 310.90,75.75 C309.02,74.09 307.43,72.71 305.97,71.51 C308.80,73.68 311.33,75.44 312.99,76.40 C314.75,77.47 315.53,77.67 314.94,76.81 C314.68,76.21 313.68,75.16 312.44,74.18 C312.21,73.96 311.97,73.74 311.71,73.50 ZM 317.31 55.37 C316.92,55.13 316.62,55.00 316.43,55.00 C315.78,55.00 314.63,54.26 313.89,53.36 C312.05,51.15 307.08,48.09 297.50,43.29 C294.45,41.76 291.76,40.43 289.40,39.29 C296.75,42.77 305.13,47.07 309.50,49.79 C311.48,51.02 314.23,53.00 317.31,55.37 ZM 251.99 363.80 C260.76,361.60 269.76,358.64 279.23,354.86 C269.99,358.71 260.46,361.89 251.99,363.80 ZM 244.17 365.56 C242.85,365.87 241.58,366.16 240.49,366.42 C237.32,367.17 232.05,367.76 226.07,368.15 L 225.99 368.16 C222.10,368.41 217.92,368.57 213.83,368.64 C217.95,368.57 222.16,368.41 226.07,368.15 C232.07,367.65 238.08,366.79 244.17,365.56 ZM 182.44 47.33 C184.63,46.89 186.98,46.43 189.50,45.95 C189.80,45.89 190.10,45.84 190.41,45.78 C186.84,46.49 183.66,47.13 180.84,47.71 C167.11,50.55 161.88,51.98 160.62,52.90 C162.13,51.79 169.28,49.97 182.36,47.35 ZM 175.67 364.90 C175.59,364.89 175.50,364.87 175.41,364.85 L 175.40 364.85 C168.96,363.56 163.69,362.22 161.90,361.28 C161.83,361.24 161.76,361.20 161.70,361.16 C163.08,361.88 168.94,363.44 175.67,364.90 ZM 206.76 368.64 C202.91,368.57 199.36,368.40 196.50,368.10 C196.00,368.05 195.50,368.00 194.99,367.94 C198.82,368.29 202.78,368.52 206.76,368.64 ZM 300.94 67.71 C301.73,68.21 302.32,68.61 302.68,68.90 C302.85,69.04 303.02,69.18 303.19,69.32 C302.44,68.76 301.70,68.23 300.94,67.71 Z" fill="rgb(92,83,218)"/>
<path d="M 0.00 202.00 L 0.00 0.00 L 232.00 0.00 L 464.00 0.00 L 464.00 202.00 L 464.00 404.00 L 232.00 404.00 L 0.00 404.00 L 0.00 202.00 ZM 229.85 387.88 C238.76,387.21 245.37,386.23 246.71,385.38 C247.93,384.62 249.96,384.00 251.22,384.00 C254.90,384.00 266.35,381.38 269.55,379.81 C271.17,379.01 274.52,377.77 277.00,377.05 C284.00,375.01 290.31,372.73 292.50,371.44 C293.60,370.79 298.10,368.35 302.50,366.02 C317.89,357.86 332.12,347.49 345.68,334.54 C357.54,323.22 361.71,318.27 374.17,300.68 C379.53,293.11 393.40,265.21 395.04,258.69 C395.48,256.93 396.68,253.25 397.72,250.50 L 399.59 245.50 L 415.04 245.00 C429.95,244.52 430.66,244.40 435.00,241.63 C443.17,236.41 444.22,235.08 448.44,224.63 C450.18,220.32 450.50,212.90 449.06,210.24 C448.55,209.28 447.09,206.31 445.82,203.63 C443.70,199.12 437.81,193.00 435.60,193.00 C435.08,193.00 433.79,192.21 432.72,191.25 C430.93,189.63 425.63,189.46 360.65,189.00 C304.49,188.60 289.94,188.76 287.71,189.80 C281.54,192.66 280.34,202.76 285.67,206.96 C288.23,208.97 289.31,209.00 355.82,209.00 L 423.37 209.00 L 425.69 211.17 C428.74,214.04 428.81,219.51 425.83,222.69 C423.69,224.96 423.28,225.00 403.29,225.00 C387.86,225.00 382.85,225.30 382.59,226.25 C382.41,226.94 381.71,229.98 381.04,233.00 C376.23,254.91 360.66,287.11 346.98,303.46 C328.81,325.17 305.41,343.74 285.50,352.26 C261.69,362.45 240.98,367.60 220.00,368.54 C206.83,369.13 192.08,368.17 181.00,366.00 C171.84,364.21 162.56,361.85 161.50,361.03 C160.95,360.61 157.68,359.30 154.22,358.13 C150.77,356.95 147.17,355.54 146.22,354.99 C145.28,354.44 141.35,352.73 137.50,351.19 C131.62,348.84 124.28,344.40 107.23,332.85 C95.68,325.03 74.71,301.92 66.00,287.40 C54.01,267.42 48.71,254.78 43.87,234.50 C41.98,226.63 40.04,214.43 40.02,210.37 C40.00,205.25 40.61,205.03 55.14,205.01 C63.92,205.00 65.89,204.72 66.39,203.42 C66.73,202.55 67.01,196.59 67.02,190.17 C67.03,179.00 68.79,164.41 70.94,157.67 C77.44,137.23 79.56,132.28 89.02,115.50 C94.97,104.94 111.68,85.67 122.00,77.46 C132.39,69.20 138.20,65.52 150.00,59.70 C174.95,47.42 189.64,44.03 218.00,44.03 C232.11,44.03 238.87,44.49 246.50,45.95 C264.41,49.40 268.97,51.00 288.00,60.54 C299.66,66.39 302.28,68.13 310.90,75.75 C313.54,78.09 316.22,80.00 316.85,80.00 C317.48,80.00 317.89,80.38 317.75,80.83 C317.61,81.29 321.33,85.48 326.00,90.15 C339.00,103.11 344.36,110.84 353.64,130.00 C355.64,134.12 357.66,138.29 358.14,139.24 C359.25,141.47 362.43,152.01 363.95,158.49 C365.33,164.39 367.05,166.53 371.62,168.04 C375.95,169.47 381.19,167.88 382.95,164.60 C384.49,161.71 383.92,153.52 381.64,146.00 C380.72,142.98 379.70,139.04 379.36,137.27 C379.02,135.49 378.13,133.52 377.37,132.89 C376.62,132.27 375.99,131.02 375.98,130.13 C375.95,128.45 368.69,113.44 365.75,109.00 C364.84,107.62 363.06,104.60 361.80,102.27 C358.57,96.34 347.79,82.91 339.50,74.52 C332.15,67.08 316.30,54.01 309.50,49.79 C301.47,44.80 279.98,34.48 276.00,33.69 C274.62,33.42 271.02,32.22 268.00,31.02 C263.11,29.08 258.40,28.02 236.94,24.03 C227.41,22.26 207.54,22.77 195.42,25.09 C189.41,26.24 182.48,27.51 180.00,27.91 C177.52,28.30 173.93,29.12 172.00,29.72 C163.00,32.54 161.23,33.00 159.40,33.00 C158.33,33.00 156.56,33.59 155.47,34.32 C154.39,35.05 151.93,36.24 150.00,36.98 C131.37,44.07 114.00,55.96 96.50,73.60 C84.53,85.66 72.00,101.16 72.00,103.88 C72.00,104.33 71.11,105.49 70.03,106.48 C68.94,107.46 67.75,109.22 67.38,110.38 C67.01,111.55 65.02,116.10 62.97,120.50 C56.19,134.99 55.14,137.56 53.92,142.56 C53.25,145.28 52.10,148.72 51.35,150.20 C50.61,151.69 50.00,154.43 50.00,156.30 C50.00,158.17 49.55,161.01 48.99,162.60 C48.44,164.20 47.65,169.55 47.24,174.50 L 46.50 183.50 L 34.50 183.75 C17.06,184.10 18.00,183.61 18.00,192.41 C18.00,201.82 20.52,225.55 22.42,234.00 C28.22,259.80 32.19,270.10 45.34,293.50 C54.93,310.58 70.04,328.28 89.30,345.00 C96.36,351.12 111.43,360.91 123.50,367.22 C135.29,373.37 137.98,374.48 147.00,376.93 C149.48,377.60 153.30,378.98 155.50,380.00 C159.42,381.80 161.41,382.29 171.50,383.88 C174.25,384.32 177.62,385.18 179.00,385.81 C181.12,386.78 197.66,388.33 211.35,388.85 C213.47,388.93 221.80,388.50 229.85,387.88 ZM 270.85 163.39 C274.87,160.95 277.78,156.79 278.16,152.97 C278.49,149.59 278.42,149.51 274.00,148.84 C271.52,148.46 263.99,148.11 257.25,148.07 L 245.00 148.00 L 245.00 150.52 C245.00,153.70 248.98,160.07 252.68,162.83 C256.28,165.52 266.80,165.84 270.85,163.39 ZM 242.41 128.57 C242.07,127.43 238.36,123.01 234.17,118.75 L 226.55 111.00 L 234.30 111.00 C245.98,111.00 245.77,110.21 229.90,94.41 C222.53,87.07 216.00,81.05 215.38,81.03 C213.77,80.99 209.00,84.94 209.01,86.32 C209.01,86.97 211.70,90.20 214.97,93.50 C218.25,96.80 220.94,99.79 220.96,100.15 C220.98,100.50 217.40,101.11 213.00,101.50 C208.60,101.89 205.00,102.61 205.00,103.10 C205.00,104.32 234.79,133.34 236.85,134.13 C239.28,135.07 243.18,131.16 242.41,128.57 ZM 302.31 126.20 C306.08,122.27 306.10,115.66 302.35,111.63 C299.98,109.07 299.21,108.82 294.84,109.24 C287.85,109.91 286.00,111.97 286.00,119.08 C286.00,124.13 286.33,125.12 288.63,126.93 C292.65,130.08 298.91,129.75 302.31,126.20 Z" fill="rgb(253,254,254)"/>
</g>
</svg>